<?xml version="1.0" encoding="UTF-8"?>
<!DOCTYPE svg PUBLIC "-//W3C//DTD SVG 1.1//EN" "http://www.w3.org/Graphics/SVG/1.1/DTD/svg11.dtd">
<svg version="1.1" xmlns="http://www.w3.org/2000/svg" xmlns:xlink="http://www.w3.org/1999/xlink" x="0" y="0" width="612" height="792" viewBox="0, 0, 612, 792">
  <g id="Holes">
    <path d="M32.9,713.3 C26.935,713.3 22.1,708.465 22.1,702.5 C22.1,696.535 26.935,691.7 32.9,691.7 C38.865,691.7 43.7,696.535 43.7,702.5 C43.7,708.465 38.865,713.3 32.9,713.3 z" fill-opacity="0" stroke="#CCCCCC" stroke-width="0.25"/>
    <path d="M32.9,407.3 C26.935,407.3 22.1,402.465 22.1,396.5 C22.1,390.535 26.935,385.7 32.9,385.7 C38.865,385.7 43.7,390.535 43.7,396.5 C43.7,402.465 38.865,407.3 32.9,407.3 z" fill-opacity="0" stroke="#CCCCCC" stroke-width="0.25"/>
    <path d="M32.9,101.3 C26.935,101.3 22.1,96.465 22.1,90.5 C22.1,84.535 26.935,79.7 32.9,79.7 C38.865,79.7 43.7,84.535 43.7,90.5 C43.7,96.465 38.865,101.3 32.9,101.3 z" fill-opacity="0" stroke="#CCCCCC" stroke-width="0.25"/>
  </g>
  <g id="VertLines">
    <path d="M79.2,36 L79.2,756" fill-opacity="0" stroke="#CCCCCC" stroke-width="0.25"/>
    <path d="M86.4,36.5 L86.4,756.5" fill-opacity="0" stroke="#CCCCCC" stroke-width="0.25"/>
    <path d="M100.8,36.5 L100.8,756.5" fill-opacity="0" stroke="#CCCCCC" stroke-width="0.25"/>
    <path d="M108,36.5 L108,756.5" fill-opacity="0" stroke="#CCCCCC" stroke-width="0.25"/>
    <path d="M115.2,36.5 L115.2,756.5" fill-opacity="0" stroke="#CCCCCC" stroke-width="0.25"/>
    <path d="M122.4,36.5 L122.4,756.5" fill-opacity="0" stroke="#CCCCCC" stroke-width="0.25"/>
    <path d="M129.6,36.5 L129.6,756.5" fill-opacity="0" stroke="#CCCCCC" stroke-width="0.25"/>
    <path d="M136.8,36.5 L136.8,756.5" fill-opacity="0" stroke="#CCCCCC" stroke-width="0.25"/>
    <path d="M144,36.5 L144,756.5" fill-opacity="0" stroke="#CCCCCC" stroke-width="0.25"/>
    <path d="M158.4,36.5 L158.4,756.5" fill-opacity="0" stroke="#CCCCCC" stroke-width="0.25"/>
    <path d="M165.6,36.5 L165.6,756.5" fill-opacity="0" stroke="#CCCCCC" stroke-width="0.25"/>
    <path d="M172.8,36.5 L172.8,756.5" fill-opacity="0" stroke="#CCCCCC" stroke-width="0.25"/>
    <path d="M180,36.5 L180,756.5" fill-opacity="0" stroke="#CCCCCC" stroke-width="0.25"/>
    <path d="M187.2,36.5 L187.2,756.5" fill-opacity="0" stroke="#CCCCCC" stroke-width="0.25"/>
    <path d="M194.4,36.5 L194.4,756.5" fill-opacity="0" stroke="#CCCCCC" stroke-width="0.25"/>
    <path d="M201.6,36.5 L201.6,756.5" fill-opacity="0" stroke="#CCCCCC" stroke-width="0.25"/>
    <path d="M216,36.5 L216,756.5" fill-opacity="0" stroke="#CCCCCC" stroke-width="0.25"/>
    <path d="M223.2,36.5 L223.2,756.5" fill-opacity="0" stroke="#CCCCCC" stroke-width="0.25"/>
    <path d="M230.4,36.5 L230.4,756.5" fill-opacity="0" stroke="#CCCCCC" stroke-width="0.25"/>
    <path d="M237.6,36.5 L237.6,756.5" fill-opacity="0" stroke="#CCCCCC" stroke-width="0.25"/>
    <path d="M244.8,36.5 L244.8,756.5" fill-opacity="0" stroke="#CCCCCC" stroke-width="0.25"/>
    <path d="M252,36.5 L252,756.5" fill-opacity="0" stroke="#CCCCCC" stroke-width="0.25"/>
    <path d="M259.2,36.5 L259.2,756.5" fill-opacity="0" stroke="#CCCCCC" stroke-width="0.25"/>
    <path d="M273.6,36.5 L273.6,756.5" fill-opacity="0" stroke="#CCCCCC" stroke-width="0.25"/>
    <path d="M280.8,36.5 L280.8,756.5" fill-opacity="0" stroke="#CCCCCC" stroke-width="0.25"/>
    <path d="M288,36.5 L288,756.5" fill-opacity="0" stroke="#CCCCCC" stroke-width="0.25"/>
    <path d="M295.2,36.5 L295.2,756.5" fill-opacity="0" stroke="#CCCCCC" stroke-width="0.25"/>
    <path d="M302.4,36.5 L302.4,756.5" fill-opacity="0" stroke="#CCCCCC" stroke-width="0.25"/>
    <path d="M309.6,36.5 L309.6,756.5" fill-opacity="0" stroke="#CCCCCC" stroke-width="0.25"/>
    <path d="M316.8,36.5 L316.8,756.5" fill-opacity="0" stroke="#CCCCCC" stroke-width="0.25"/>
    <path d="M331.2,36.5 L331.2,756.5" fill-opacity="0" stroke="#CCCCCC" stroke-width="0.25"/>
    <path d="M338.4,36.5 L338.4,756.5" fill-opacity="0" stroke="#CCCCCC" stroke-width="0.25"/>
    <path d="M345.6,36.5 L345.6,756.5" fill-opacity="0" stroke="#CCCCCC" stroke-width="0.25"/>
    <path d="M352.8,36.5 L352.8,756.5" fill-opacity="0" stroke="#CCCCCC" stroke-width="0.25"/>
    <path d="M360,36.5 L360,756.5" fill-opacity="0" stroke="#CCCCCC" stroke-width="0.25"/>
    <path d="M367.2,36.5 L367.2,756.5" fill-opacity="0" stroke="#CCCCCC" stroke-width="0.25"/>
    <path d="M374.4,36.5 L374.4,756.5" fill-opacity="0" stroke="#CCCCCC" stroke-width="0.25"/>
    <path d="M388.8,36.5 L388.8,756.5" fill-opacity="0" stroke="#CCCCCC" stroke-width="0.25"/>
    <path d="M396,36.5 L396,756.5" fill-opacity="0" stroke="#CCCCCC" stroke-width="0.25"/>
    <path d="M403.2,36.5 L403.2,756.5" fill-opacity="0" stroke="#CCCCCC" stroke-width="0.25"/>
    <path d="M410.4,36.5 L410.4,756.5" fill-opacity="0" stroke="#CCCCCC" stroke-width="0.25"/>
    <path d="M417.6,36.5 L417.6,756.5" fill-opacity="0" stroke="#CCCCCC" stroke-width="0.25"/>
    <path d="M424.8,36.5 L424.8,756.5" fill-opacity="0" stroke="#CCCCCC" stroke-width="0.25"/>
    <path d="M432,36.5 L432,756.5" fill-opacity="0" stroke="#CCCCCC" stroke-width="0.25"/>
    <path d="M446.4,36.5 L446.4,756.5" fill-opacity="0" stroke="#CCCCCC" stroke-width="0.25"/>
    <path d="M453.6,36.5 L453.6,756.5" fill-opacity="0" stroke="#CCCCCC" stroke-width="0.25"/>
    <path d="M460.8,36.5 L460.8,756.5" fill-opacity="0" stroke="#CCCCCC" stroke-width="0.25"/>
    <path d="M468,36.5 L468,756.5" fill-opacity="0" stroke="#CCCCCC" stroke-width="0.25"/>
    <path d="M475.2,36.5 L475.2,756.5" fill-opacity="0" stroke="#CCCCCC" stroke-width="0.25"/>
    <path d="M482.4,36.5 L482.4,756.5" fill-opacity="0" stroke="#CCCCCC" stroke-width="0.25"/>
    <path d="M489.6,36.5 L489.6,756.5" fill-opacity="0" stroke="#CCCCCC" stroke-width="0.25"/>
    <path d="M504,36.5 L504,756.5" fill-opacity="0" stroke="#CCCCCC" stroke-width="0.25"/>
    <path d="M511.2,36.5 L511.2,756.5" fill-opacity="0" stroke="#CCCCCC" stroke-width="0.25"/>
    <path d="M518.4,36.5 L518.4,756.5" fill-opacity="0" stroke="#CCCCCC" stroke-width="0.25"/>
    <path d="M525.6,36.5 L525.6,756.5" fill-opacity="0" stroke="#CCCCCC" stroke-width="0.25"/>
    <path d="M532.8,36.5 L532.8,756.5" fill-opacity="0" stroke="#CCCCCC" stroke-width="0.25"/>
    <path d="M540,36.5 L540,756.5" fill-opacity="0" stroke="#CCCCCC" stroke-width="0.25"/>
    <path d="M547.2,36.5 L547.2,756.5" fill-opacity="0" stroke="#CCCCCC" stroke-width="0.25"/>
    <path d="M561.6,36.5 L561.6,756.5" fill-opacity="0" stroke="#CCCCCC" stroke-width="0.25"/>
    <path d="M568.8,36.5 L568.8,756.5" fill-opacity="0" stroke="#CCCCCC" stroke-width="0.25"/>
  </g>
  <g id="HorzLines">
    <path d="M72.5,748.8 L576.5,748.8" fill-opacity="0" stroke="#CCCCCC" stroke-width="0.25"/>
    <path d="M72.5,741.6 L576.5,741.6" fill-opacity="0" stroke="#CCCCCC" stroke-width="0.25"/>
    <path d="M72.5,734.4 L576.5,734.4" fill-opacity="0" stroke="#CCCCCC" stroke-width="0.25"/>
    <path d="M72.5,727.2 L576.5,727.2" fill-opacity="0" stroke="#CCCCCC" stroke-width="0.25"/>
    <path d="M72.5,720 L576.5,720" fill-opacity="0" stroke="#CCCCCC" stroke-width="0.25"/>
    <path d="M72.5,712.8 L576.5,712.8" fill-opacity="0" stroke="#CCCCCC" stroke-width="0.25"/>
    <path d="M72.5,705.6 L576.5,705.6" fill-opacity="0" stroke="#CCCCCC" stroke-width="0.25"/>
    <path d="M72.5,698.4 L576.5,698.4" fill-opacity="0" stroke="#CCCCCC" stroke-width="0.25"/>
    <path d="M72.5,691.2 L576.5,691.2" fill-opacity="0" stroke="#CCCCCC" stroke-width="0.25"/>
    <path d="M72.5,684 L576.5,684" fill-opacity="0" stroke="#CCCCCC" stroke-width="0.25"/>
    <path d="M72.5,676.8 L576.5,676.8" fill-opacity="0" stroke="#CCCCCC" stroke-width="0.25"/>
    <path d="M72.5,669.6 L576.5,669.6" fill-opacity="0" stroke="#CCCCCC" stroke-width="0.25"/>
    <path d="M72.5,662.4 L576.5,662.4" fill-opacity="0" stroke="#CCCCCC" stroke-width="0.25"/>
    <path d="M72.5,655.2 L576.5,655.2" fill-opacity="0" stroke="#CCCCCC" stroke-width="0.25"/>
    <path d="M72.5,648 L576.5,648" fill-opacity="0" stroke="#CCCCCC" stroke-width="0.25"/>
    <path d="M72.5,640.8 L576.5,640.8" fill-opacity="0" stroke="#CCCCCC" stroke-width="0.25"/>
    <path d="M72.5,633.6 L576.5,633.6" fill-opacity="0" stroke="#CCCCCC" stroke-width="0.25"/>
    <path d="M72.5,626.4 L576.5,626.4" fill-opacity="0" stroke="#CCCCCC" stroke-width="0.25"/>
    <path d="M72.5,619.2 L576.5,619.2" fill-opacity="0" stroke="#CCCCCC" stroke-width="0.25"/>
    <path d="M72.5,612 L576.5,612" fill-opacity="0" stroke="#CCCCCC" stroke-width="0.25"/>
    <path d="M72.5,604.8 L576.5,604.8" fill-opacity="0" stroke="#CCCCCC" stroke-width="0.25"/>
    <path d="M72.5,597.6 L576.5,597.6" fill-opacity="0" stroke="#CCCCCC" stroke-width="0.25"/>
    <path d="M72.5,590.4 L576.5,590.4" fill-opacity="0" stroke="#CCCCCC" stroke-width="0.25"/>
    <path d="M72.5,583.2 L576.5,583.2" fill-opacity="0" stroke="#CCCCCC" stroke-width="0.25"/>
    <path d="M72.5,576 L576.5,576" fill-opacity="0" stroke="#CCCCCC" stroke-width="0.25"/>
    <path d="M72.5,568.8 L576.5,568.8" fill-opacity="0" stroke="#CCCCCC" stroke-width="0.25"/>
    <path d="M72.5,561.6 L576.5,561.6" fill-opacity="0" stroke="#CCCCCC" stroke-width="0.25"/>
    <path d="M72.5,554.4 L576.5,554.4" fill-opacity="0" stroke="#CCCCCC" stroke-width="0.25"/>
    <path d="M72.5,547.2 L576.5,547.2" fill-opacity="0" stroke="#CCCCCC" stroke-width="0.25"/>
    <path d="M72.5,540 L576.5,540" fill-opacity="0" stroke="#CCCCCC" stroke-width="0.25"/>
    <path d="M72.5,532.8 L576.5,532.8" fill-opacity="0" stroke="#CCCCCC" stroke-width="0.25"/>
    <path d="M72.5,525.6 L576.5,525.6" fill-opacity="0" stroke="#CCCCCC" stroke-width="0.25"/>
    <path d="M72.5,518.4 L576.5,518.4" fill-opacity="0" stroke="#CCCCCC" stroke-width="0.25"/>
    <path d="M72.5,511.2 L576.5,511.2" fill-opacity="0" stroke="#CCCCCC" stroke-width="0.25"/>
    <path d="M72.5,504 L576.5,504" fill-opacity="0" stroke="#CCCCCC" stroke-width="0.25"/>
    <path d="M72.5,496.8 L576.5,496.8" fill-opacity="0" stroke="#CCCCCC" stroke-width="0.25"/>
    <path d="M72.5,489.6 L576.5,489.6" fill-opacity="0" stroke="#CCCCCC" stroke-width="0.25"/>
    <path d="M72.5,482.4 L576.5,482.4" fill-opacity="0" stroke="#CCCCCC" stroke-width="0.25"/>
    <path d="M72.5,475.2 L576.5,475.2" fill-opacity="0" stroke="#CCCCCC" stroke-width="0.25"/>
    <path d="M72.5,468 L576.5,468" fill-opacity="0" stroke="#CCCCCC" stroke-width="0.25"/>
    <path d="M72.5,460.8 L576.5,460.8" fill-opacity="0" stroke="#CCCCCC" stroke-width="0.25"/>
    <path d="M72.5,453.6 L576.5,453.6" fill-opacity="0" stroke="#CCCCCC" stroke-width="0.25"/>
    <path d="M72.5,446.4 L576.5,446.4" fill-opacity="0" stroke="#CCCCCC" stroke-width="0.25"/>
    <path d="M72.5,439.2 L576.5,439.2" fill-opacity="0" stroke="#CCCCCC" stroke-width="0.25"/>
    <path d="M72.5,432 L576.5,432" fill-opacity="0" stroke="#CCCCCC" stroke-width="0.25"/>
    <path d="M72.5,424.8 L576.5,424.8" fill-opacity="0" stroke="#CCCCCC" stroke-width="0.25"/>
    <path d="M72.5,417.6 L576.5,417.6" fill-opacity="0" stroke="#CCCCCC" stroke-width="0.25"/>
    <path d="M72.5,410.4 L576.5,410.4" fill-opacity="0" stroke="#CCCCCC" stroke-width="0.25"/>
    <path d="M72.5,403.2 L576.5,403.2" fill-opacity="0" stroke="#CCCCCC" stroke-width="0.25"/>
    <path d="M72.5,396 L576.5,396" fill-opacity="0" stroke="#CCCCCC" stroke-width="0.25"/>
    <path d="M72.5,388.8 L576.5,388.8" fill-opacity="0" stroke="#CCCCCC" stroke-width="0.25"/>
    <path d="M72.5,381.6 L576.5,381.6" fill-opacity="0" stroke="#CCCCCC" stroke-width="0.25"/>
    <path d="M72.5,374.4 L576.5,374.4" fill-opacity="0" stroke="#CCCCCC" stroke-width="0.25"/>
    <path d="M72.5,367.2 L576.5,367.2" fill-opacity="0" stroke="#CCCCCC" stroke-width="0.25"/>
    <path d="M72.5,360 L576.5,360" fill-opacity="0" stroke="#CCCCCC" stroke-width="0.25"/>
    <path d="M72.5,352.8 L576.5,352.8" fill-opacity="0" stroke="#CCCCCC" stroke-width="0.25"/>
    <path d="M72.5,345.6 L576.5,345.6" fill-opacity="0" stroke="#CCCCCC" stroke-width="0.25"/>
    <path d="M72.5,338.4 L576.5,338.4" fill-opacity="0" stroke="#CCCCCC" stroke-width="0.25"/>
    <path d="M72.5,331.2 L576.5,331.2" fill-opacity="0" stroke="#CCCCCC" stroke-width="0.25"/>
    <path d="M72.5,324 L576.5,324" fill-opacity="0" stroke="#CCCCCC" stroke-width="0.25"/>
    <path d="M72.5,316.8 L576.5,316.8" fill-opacity="0" stroke="#CCCCCC" stroke-width="0.25"/>
    <path d="M72.5,309.6 L576.5,309.6" fill-opacity="0" stroke="#CCCCCC" stroke-width="0.25"/>
    <path d="M72.5,302.4 L576.5,302.4" fill-opacity="0" stroke="#CCCCCC" stroke-width="0.25"/>
    <path d="M72.5,295.2 L576.5,295.2" fill-opacity="0" stroke="#CCCCCC" stroke-width="0.25"/>
    <path d="M72.5,288 L576.5,288" fill-opacity="0" stroke="#CCCCCC" stroke-width="0.25"/>
    <path d="M72.5,280.8 L576.5,280.8" fill-opacity="0" stroke="#CCCCCC" stroke-width="0.25"/>
    <path d="M72.5,273.6 L576.5,273.6" fill-opacity="0" stroke="#CCCCCC" stroke-width="0.25"/>
    <path d="M72.5,266.4 L576.5,266.4" fill-opacity="0" stroke="#CCCCCC" stroke-width="0.25"/>
    <path d="M72.5,259.2 L576.5,259.2" fill-opacity="0" stroke="#CCCCCC" stroke-width="0.25"/>
    <path d="M72.5,252 L576.5,252" fill-opacity="0" stroke="#CCCCCC" stroke-width="0.25"/>
    <path d="M72.5,244.8 L576.5,244.8" fill-opacity="0" stroke="#CCCCCC" stroke-width="0.25"/>
    <path d="M72.5,237.6 L576.5,237.6" fill-opacity="0" stroke="#CCCCCC" stroke-width="0.25"/>
    <path d="M72.5,230.4 L576.5,230.4" fill-opacity="0" stroke="#CCCCCC" stroke-width="0.25"/>
    <path d="M72.5,223.2 L576.5,223.2" fill-opacity="0" stroke="#CCCCCC" stroke-width="0.25"/>
    <path d="M72.5,216 L576.5,216" fill-opacity="0" stroke="#CCCCCC" stroke-width="0.25"/>
    <path d="M72.5,208.8 L576.5,208.8" fill-opacity="0" stroke="#CCCCCC" stroke-width="0.25"/>
    <path d="M72.5,201.6 L576.5,201.6" fill-opacity="0" stroke="#CCCCCC" stroke-width="0.25"/>
    <path d="M72.5,194.4 L576.5,194.4" fill-opacity="0" stroke="#CCCCCC" stroke-width="0.25"/>
    <path d="M72.5,187.2 L576.5,187.2" fill-opacity="0" stroke="#CCCCCC" stroke-width="0.25"/>
    <path d="M72.5,180 L576.5,180" fill-opacity="0" stroke="#CCCCCC" stroke-width="0.25"/>
    <path d="M72.5,172.8 L576.5,172.8" fill-opacity="0" stroke="#CCCCCC" stroke-width="0.25"/>
    <path d="M72.5,165.6 L576.5,165.6" fill-opacity="0" stroke="#CCCCCC" stroke-width="0.25"/>
    <path d="M72.5,158.4 L576.5,158.4" fill-opacity="0" stroke="#CCCCCC" stroke-width="0.25"/>
    <path d="M72.5,151.2 L576.5,151.2" fill-opacity="0" stroke="#CCCCCC" stroke-width="0.25"/>
    <path d="M72.5,144 L576.5,144" fill-opacity="0" stroke="#CCCCCC" stroke-width="0.25"/>
    <path d="M72.5,136.8 L576.5,136.8" fill-opacity="0" stroke="#CCCCCC" stroke-width="0.25"/>
    <path d="M72.5,129.6 L576.5,129.6" fill-opacity="0" stroke="#CCCCCC" stroke-width="0.25"/>
    <path d="M72.5,122.4 L576.5,122.4" fill-opacity="0" stroke="#CCCCCC" stroke-width="0.25"/>
    <path d="M72.5,115.2 L576.5,115.2" fill-opacity="0" stroke="#CCCCCC" stroke-width="0.25"/>
    <path d="M72.5,108 L576.5,108" fill-opacity="0" stroke="#CCCCCC" stroke-width="0.25"/>
    <path d="M72.5,100.8 L576.5,100.8" fill-opacity="0" stroke="#CCCCCC" stroke-width="0.25"/>
    <path d="M72.5,93.6 L576.5,93.6" fill-opacity="0" stroke="#CCCCCC" stroke-width="0.25"/>
    <path d="M72.5,86.4 L576.5,86.4" fill-opacity="0" stroke="#CCCCCC" stroke-width="0.25"/>
    <path d="M72.5,79.2 L576.5,79.2" fill-opacity="0" stroke="#CCCCCC" stroke-width="0.25"/>
    <path d="M72.5,72 L576.5,72" fill-opacity="0" stroke="#CCCCCC" stroke-width="0.25"/>
    <path d="M72.5,64.8 L576.5,64.8" fill-opacity="0" stroke="#CCCCCC" stroke-width="0.25"/>
    <path d="M72.5,57.6 L576.5,57.6" fill-opacity="0" stroke="#CCCCCC" stroke-width="0.25"/>
    <path d="M72.5,50.4 L576.5,50.4" fill-opacity="0" stroke="#CCCCCC" stroke-width="0.25"/>
    <path d="M72.5,43.2 L576.5,43.2" fill-opacity="0" stroke="#CCCCCC" stroke-width="0.25"/>
  </g>
  <g id="ThickVertLines">
    <path d="M93.6,36.5 L93.6,756.5" fill-opacity="0" stroke="#CCCCCC" stroke-width="1.25"/>
    <path d="M151.2,36.5 L151.2,756.5" fill-opacity="0" stroke="#CCCCCC" stroke-width="1.25"/>
    <path d="M208.8,36.5 L208.8,756.5" fill-opacity="0" stroke="#CCCCCC" stroke-width="1.25"/>
    <path d="M266.4,36.5 L266.4,756.5" fill-opacity="0" stroke="#CCCCCC" stroke-width="1.25"/>
    <path d="M324,36.5 L324,756.5" fill-opacity="0" stroke="#CCCCCC" stroke-width="1.25"/>
    <path d="M381.6,36.5 L381.6,756.5" fill-opacity="0" stroke="#CCCCCC" stroke-width="1.25"/>
    <path d="M439.2,36.5 L439.2,756.5" fill-opacity="0" stroke="#CCCCCC" stroke-width="1.25"/>
    <path d="M496.8,36.5 L496.8,756.5" fill-opacity="0" stroke="#CCCCCC" stroke-width="1.25"/>
    <path d="M554.4,36.5 L554.4,756.5" fill-opacity="0" stroke="#CCCCCC" stroke-width="1.25"/>
  </g>
  <g id="ThickHorzLines">
    <path d="M72.5,756.5 L576.5,756.5" fill-opacity="0" stroke="#CCCCCC" stroke-width="1.25"/>
    <path d="M72.5,741.6 L576.5,741.6" fill-opacity="0" stroke="#CCCCCC" stroke-width="1.25"/>
    <path d="M72.5,684 L576.5,684" fill-opacity="0" stroke="#CCCCCC" stroke-width="1.25"/>
    <path d="M72.5,626.4 L576.5,626.4" fill-opacity="0" stroke="#CCCCCC" stroke-width="1.25"/>
    <path d="M72.5,568.8 L576.5,568.8" fill-opacity="0" stroke="#CCCCCC" stroke-width="1.25"/>
    <path d="M72.5,511.2 L576.5,511.2" fill-opacity="0" stroke="#CCCCCC" stroke-width="1.25"/>
    <path d="M72.5,453.6 L576.5,453.6" fill-opacity="0" stroke="#CCCCCC" stroke-width="1.25"/>
    <path d="M72.5,396 L576.5,396" fill-opacity="0" stroke="#CCCCCC" stroke-width="1.25"/>
    <path d="M72.5,338.4 L576.5,338.4" fill-opacity="0" stroke="#CCCCCC" stroke-width="1.25"/>
    <path d="M72.5,280.8 L576.5,280.8" fill-opacity="0" stroke="#CCCCCC" stroke-width="1.25"/>
    <path d="M72.5,223.2 L576.5,223.2" fill-opacity="0" stroke="#CCCCCC" stroke-width="1.25"/>
    <path d="M72.5,165.6 L576.5,165.6" fill-opacity="0" stroke="#CCCCCC" stroke-width="1.25"/>
    <path d="M72.5,108 L576.5,108" fill-opacity="0" stroke="#CCCCCC" stroke-width="1.25"/>
    <path d="M72.5,50.4 L576.5,50.4" fill-opacity="0" stroke="#CCCCCC" stroke-width="1.25"/>
  </g>
  <g id="Margins">
    <path d="M0.5,36.5 L612.5,36.5" fill-opacity="0" stroke="#CCCCCC" stroke-width="2"/>
    <path d="M72.5,0.5 L72.5,792.5" fill-opacity="0" stroke="#CCCCCC" stroke-width="2"/>
    <path d="M576.5,0.5 L576.5,792.5" fill-opacity="0" stroke="#CCCCCC" stroke-width="2"/>
    <path d="M245.3,36.5 L245.3,0.5" fill-opacity="0" stroke="#CCCCCC" stroke-width="2"/>
    <path d="M403.7,36.5 L403.7,0.5" fill-opacity="0" stroke="#CCCCCC" stroke-width="2"/>
  </g>
  <g id="Keylines48b">
    <path d="M324,727.2 C236.518,727.2 165.6,656.282 165.6,568.8 C165.6,481.318 236.518,410.4 324,410.4 C411.482,410.4 482.4,481.318 482.4,568.8 C482.4,656.282 411.482,727.2 324,727.2 z" fill-opacity="0" stroke="#339999" stroke-width="0.5"/>
    <path d="M324,640.8 C284.236,640.8 252,608.565 252,568.8 C252,529.035 284.236,496.8 324,496.8 C363.764,496.8 396,529.035 396,568.8 C396,608.565 363.764,640.8 324,640.8 z" fill-opacity="0" stroke="#339999" stroke-width="0.5"/>
    <path d="M151.2,396 L496.8,741.6" fill-opacity="0" stroke="#339999" stroke-width="0.5"/>
    <path d="M151.2,741.6 L496.8,396" fill-opacity="0" stroke="#339999" stroke-width="0.5"/>
    <path d="M151.2,619.2 L496.8,619.2" fill-opacity="0" stroke="#339999" stroke-width="0.5"/>
    <path d="M151.2,568.8 L496.8,568.8" fill-opacity="0" stroke="#339999" stroke-width="0.5"/>
    <path d="M151.2,518.4 L496.8,518.4" fill-opacity="0" stroke="#339999" stroke-width="0.5"/>
    <path d="M273.6,396 L273.6,741.6" fill-opacity="0" stroke="#339999" stroke-width="0.5"/>
    <path d="M324,396 L324,741.6" fill-opacity="0" stroke="#339999" stroke-width="0.5"/>
    <path d="M374.4,396 L374.4,741.6" fill-opacity="0" stroke="#339999" stroke-width="0.5"/>
    <path d="M187.2,453.6 L460.8,453.6 C472.729,453.6 482.4,463.271 482.4,475.2 L482.4,662.4 C482.4,674.329 472.729,684 460.8,684 L187.2,684 C175.271,684 165.6,674.329 165.6,662.4 L165.6,475.2 C165.6,463.271 175.271,453.6 187.2,453.6 z" fill-opacity="0" stroke="#339999" stroke-width="0.5"/>
    <path d="M230.4,410.4 L417.6,410.4 C429.529,410.4 439.2,420.071 439.2,432 L439.2,705.6 C439.2,717.529 429.529,727.2 417.6,727.2 L230.4,727.2 C218.471,727.2 208.8,717.529 208.8,705.6 L208.8,432 C208.8,420.071 218.471,410.4 230.4,410.4 z" fill-opacity="0" stroke="#339999" stroke-width="0.5"/>
    <path d="M208.8,432 L439.2,432 C451.129,432 460.8,441.671 460.8,453.6 L460.8,684 C460.8,695.929 451.129,705.6 439.2,705.6 L208.8,705.6 C196.871,705.6 187.2,695.929 187.2,684 L187.2,453.6 C187.2,441.671 196.871,432 208.8,432 z" fill-opacity="0" stroke="#339999" stroke-width="0.5"/>
    <path d="M151.2,396 L496.8,396 L496.8,741.6 L151.2,741.6 L151.2,396 z" fill-opacity="0" stroke="#339999" stroke-width="0.5"/>
    <path d="M158.4,568.8 L324,403.2 L489.6,568.8 L324,734.4 L158.4,568.8 z" fill-opacity="0" stroke="#339999" stroke-width="0.5"/>
  </g>
  <g id="Keylines48a">
    <path d="M324,381.6 C236.518,381.6 165.6,310.682 165.6,223.2 C165.6,135.718 236.518,64.8 324,64.8 C411.482,64.8 482.4,135.718 482.4,223.2 C482.4,310.682 411.482,381.6 324,381.6 z" fill-opacity="0" stroke="#339999" stroke-width="0.5"/>
    <path d="M324,295.2 C284.236,295.2 252,262.965 252,223.2 C252,183.435 284.236,151.2 324,151.2 C363.764,151.2 396,183.435 396,223.2 C396,262.965 363.764,295.2 324,295.2 z" fill-opacity="0" stroke="#339999" stroke-width="0.5"/>
    <path d="M151.2,50.4 L496.8,396" fill-opacity="0" stroke="#339999" stroke-width="0.5"/>
    <path d="M151.2,396 L496.8,50.4" fill-opacity="0" stroke="#339999" stroke-width="0.5"/>
    <path d="M151.2,273.6 L496.8,273.6" fill-opacity="0" stroke="#339999" stroke-width="0.5"/>
    <path d="M151.2,223.2 L496.8,223.2" fill-opacity="0" stroke="#339999" stroke-width="0.5"/>
    <path d="M151.2,172.8 L496.8,172.8" fill-opacity="0" stroke="#339999" stroke-width="0.5"/>
    <path d="M273.6,50.4 L273.6,396" fill-opacity="0" stroke="#339999" stroke-width="0.5"/>
    <path d="M324,50.4 L324,396" fill-opacity="0" stroke="#339999" stroke-width="0.5"/>
    <path d="M374.4,50.4 L374.4,396" fill-opacity="0" stroke="#339999" stroke-width="0.5"/>
    <path d="M187.2,108 L460.8,108 C472.729,108 482.4,117.671 482.4,129.6 L482.4,316.8 C482.4,328.729 472.729,338.4 460.8,338.4 L187.2,338.4 C175.271,338.4 165.6,328.729 165.6,316.8 L165.6,129.6 C165.6,117.671 175.271,108 187.2,108 z" fill-opacity="0" stroke="#339999" stroke-width="0.5"/>
    <path d="M230.4,64.8 L417.6,64.8 C429.529,64.8 439.2,74.471 439.2,86.4 L439.2,360 C439.2,371.929 429.529,381.6 417.6,381.6 L230.4,381.6 C218.471,381.6 208.8,371.929 208.8,360 L208.8,86.4 C208.8,74.471 218.471,64.8 230.4,64.8 z" fill-opacity="0" stroke="#339999" stroke-width="0.5"/>
    <path d="M208.8,86.4 L439.2,86.4 C451.129,86.4 460.8,96.071 460.8,108 L460.8,338.4 C460.8,350.329 451.129,360 439.2,360 L208.8,360 C196.871,360 187.2,350.329 187.2,338.4 L187.2,108 C187.2,96.071 196.871,86.4 208.8,86.4 z" fill-opacity="0" stroke="#339999" stroke-width="0.5"/>
    <path d="M151.2,50.4 L496.8,50.4 L496.8,396 L151.2,396 L151.2,50.4 z" fill-opacity="0" stroke="#339999" stroke-width="0.5"/>
    <path d="M158.4,223.2 L324,57.6 L489.6,223.2 L324,388.8 L158.4,223.2 z" fill-opacity="0" stroke="#339999" stroke-width="0.5"/>
  </g>
</svg>
