<?xml version="1.0" encoding="UTF-8"?>
<!DOCTYPE svg PUBLIC "-//W3C//DTD SVG 1.1//EN" "http://www.w3.org/Graphics/SVG/1.1/DTD/svg11.dtd">
<svg version="1.1" xmlns="http://www.w3.org/2000/svg" xmlns:xlink="http://www.w3.org/1999/xlink" x="0" y="0" width="612" height="792" viewBox="0, 0, 612, 792">
  <g id="Hole_Punches" opacity="0.247">
    <path d="M32.9,713.3 C26.935,713.3 22.1,708.465 22.1,702.5 C22.1,696.535 26.935,691.7 32.9,691.7 C38.865,691.7 43.7,696.535 43.7,702.5 C43.7,708.465 38.865,713.3 32.9,713.3 z" fill-opacity="0" stroke="#0E0C0C" stroke-width="0.25"/>
    <path d="M32.9,407.3 C26.935,407.3 22.1,402.465 22.1,396.5 C22.1,390.535 26.935,385.7 32.9,385.7 C38.865,385.7 43.7,390.535 43.7,396.5 C43.7,402.465 38.865,407.3 32.9,407.3 z" fill-opacity="0" stroke="#0E0C0C" stroke-width="0.25"/>
    <path d="M32.9,101.3 C26.935,101.3 22.1,96.465 22.1,90.5 C22.1,84.535 26.935,79.7 32.9,79.7 C38.865,79.7 43.7,84.535 43.7,90.5 C43.7,96.465 38.865,101.3 32.9,101.3 z" fill-opacity="0" stroke="#0E0C0C" stroke-width="0.25"/>
  </g>
  <g id="Icon_Grids">
    <g id="Keylines32">
      <path d="M223.7,295.7 C168.03,295.7 122.9,250.57 122.9,194.9 C122.9,139.23 168.03,94.1 223.7,94.1 C279.37,94.1 324.5,139.23 324.5,194.9 C324.5,250.57 279.37,295.7 223.7,295.7 z" fill-opacity="0" stroke="#97999A" stroke-width="0.25" id="OuterCircle32"/>
      <path d="M223.7,238.1 C199.841,238.1 180.5,218.759 180.5,194.9 C180.5,171.041 199.841,151.7 223.7,151.7 C247.559,151.7 266.9,171.041 266.9,194.9 C266.9,218.759 247.559,238.1 223.7,238.1 z" fill-opacity="0" stroke="#97999A" stroke-width="0.25" id="InnerCircle32"/>
      <path d="M108.5,79.7 L338.9,310.1" fill-opacity="0" stroke="#97999A" stroke-width="0.25" id="DownSlant32"/>
      <path d="M108.5,310.1 L338.9,79.7" fill-opacity="0" stroke="#97999A" stroke-width="0.25" id="UpSlant32"/>
      <path d="M108.5,166.1 L338.9,166.1" fill-opacity="0" stroke="#97999A" stroke-width="0.25" id="TopHorizLine32"/>
      <path d="M108.5,194.9 L338.9,194.9" fill-opacity="0" stroke="#97999A" stroke-width="0.25" id="MiddleHorizLine32"/>
      <path d="M108.5,223.7 L338.9,223.7" fill-opacity="0" stroke="#97999A" stroke-width="0.25" id="BottomHorizLine32"/>
      <path d="M194.9,79.7 L194.9,310.1" fill-opacity="0" stroke="#97999A" stroke-width="0.25" id="RightVertLine32"/>
      <path d="M223.7,79.7 L223.7,310.1" fill-opacity="0" stroke="#97999A" stroke-width="0.25" id="MiddleVertLine32"/>
      <path d="M252.5,79.7 L252.5,310.1" fill-opacity="0" stroke="#97999A" stroke-width="0.25" id="LeftVertLine32"/>
      <path d="M136.645,122.9 L310.755,122.9 C318.346,122.9 324.5,128.944 324.5,136.4 L324.5,253.4 C324.5,260.856 318.346,266.9 310.755,266.9 L136.645,266.9 C129.054,266.9 122.9,260.856 122.9,253.4 L122.9,136.4 C122.9,128.944 129.054,122.9 136.645,122.9 z" fill-opacity="0" stroke="#97999A" stroke-width="0.25" id="HorizontalRectangle32"/>
      <path d="M165.2,94.1 L282.2,94.1 C289.656,94.1 295.7,100.254 295.7,107.845 L295.7,281.955 C295.7,289.546 289.656,295.7 282.2,295.7 L165.2,295.7 C157.744,295.7 151.7,289.546 151.7,281.955 L151.7,107.845 C151.7,100.254 157.744,94.1 165.2,94.1 z" fill-opacity="0" stroke="#97999A" stroke-width="0.25" id="VerticalRectangle32"/>
      <path d="M151.7,108.5 L295.7,108.5 C303.653,108.5 310.1,114.947 310.1,122.9 L310.1,266.9 C310.1,274.853 303.653,281.3 295.7,281.3 L151.7,281.3 C143.747,281.3 137.3,274.853 137.3,266.9 L137.3,122.9 C137.3,114.947 143.747,108.5 151.7,108.5 z" fill-opacity="0" stroke="#97999A" stroke-width="0.25" id="Square32"/>
      <path d="M108.5,79.7 L338.9,79.7 L338.9,310.1 L108.5,310.1 L108.5,79.7 z" fill-opacity="0" stroke="#97999A" stroke-width="0.25" id="Border32"/>
      <path d="M115.7,194.9 L223.7,86.9 L331.7,194.9 L223.7,302.9 L115.7,194.9 z" fill-opacity="0" stroke="#97999A" stroke-width="0.25" id="Diamond32"/>
    </g>
    <g id="Keylines24">
      <path d="M482.9,238.1 C443.135,238.1 410.9,205.865 410.9,166.1 C410.9,126.336 443.135,94.1 482.9,94.1 C522.664,94.1 554.9,126.336 554.9,166.1 C554.9,205.865 522.664,238.1 482.9,238.1 z" fill-opacity="0" stroke="#97999A" stroke-width="0.25" id="OuterCircle24"/>
      <path d="M482.9,202.1 C463.018,202.1 446.9,185.982 446.9,166.1 C446.9,146.218 463.018,130.1 482.9,130.1 C502.782,130.1 518.9,146.218 518.9,166.1 C518.9,185.982 502.782,202.1 482.9,202.1 z" fill-opacity="0" stroke="#97999A" stroke-width="0.25" id="InnerCircle24"/>
      <path d="M396.5,79.7 L569.3,252.5" fill-opacity="0" stroke="#97999A" stroke-width="0.25" id="DownSlant24"/>
      <path d="M396.5,252.5 L569.3,79.7" fill-opacity="0" stroke="#97999A" stroke-width="0.25" id="UpSlant24"/>
      <path d="M396.5,194.9 L569.3,194.9" fill-opacity="0" stroke="#97999A" stroke-width="0.25" id="BottomHorizLine24"/>
      <path d="M396.5,166.1 L569.3,166.1" fill-opacity="0" stroke="#97999A" stroke-width="0.25" id="MiddleHorizLine24"/>
      <path d="M396.5,137.3 L569.3,137.3" fill-opacity="0" stroke="#97999A" stroke-width="0.25" id="TopHorizLine24"/>
      <path d="M454.1,79.7 L454.1,252.5" fill-opacity="0" stroke="#97999A" stroke-width="0.25" id="LeftVertLine24"/>
      <path d="M482.9,79.7 L482.9,252.5" fill-opacity="0" stroke="#97999A" stroke-width="0.25" id="MiddleVertLine24"/>
      <path d="M511.7,79.7 L511.7,252.5" fill-opacity="0" stroke="#97999A" stroke-width="0.25" id="RightVertLine24"/>
      <path d="M425.3,108.5 L540.5,108.5 C548.453,108.5 554.9,114.947 554.9,122.9 L554.9,209.3 C554.9,217.253 548.453,223.7 540.5,223.7 L425.3,223.7 C417.347,223.7 410.9,217.253 410.9,209.3 L410.9,122.9 C410.9,114.947 417.347,108.5 425.3,108.5 z" fill-opacity="0" stroke="#97999A" stroke-width="0.25" id="WideSquare24"/>
      <path d="M439.7,94.1 L526.1,94.1 C534.053,94.1 540.5,100.547 540.5,108.5 L540.5,223.7 C540.5,231.653 534.053,238.1 526.1,238.1 L439.7,238.1 C431.747,238.1 425.3,231.653 425.3,223.7 L425.3,108.5 C425.3,100.547 431.747,94.1 439.7,94.1 z" fill-opacity="0" stroke="#97999A" stroke-width="0.25" id="TallSquare24"/>
      <path d="M432.5,101.3 L533.3,101.3 C541.253,101.3 547.7,107.747 547.7,115.7 L547.7,216.5 C547.7,224.453 541.253,230.9 533.3,230.9 L432.5,230.9 C424.547,230.9 418.1,224.453 418.1,216.5 L418.1,115.7 C418.1,107.747 424.547,101.3 432.5,101.3 z" fill-opacity="0" stroke="#97999A" stroke-width="0.25" id="Square24"/>
      <path d="M396.5,79.7 L569.3,79.7 L569.3,252.5 L396.5,252.5 L396.5,79.7 z" fill-opacity="0" stroke="#97999A" stroke-width="0.25" id="Border24"/>
      <path d="M403.7,166.1 L482.9,86.9 L562.1,166.1 L482.9,245.3 L403.7,166.1 z" fill-opacity="0" stroke="#97999A" stroke-width="0.25" id="Diamond24"/>
    </g>
    <g id="Keylines48">
      <path d="M396.5,698.9 C309.018,698.9 238.1,627.982 238.1,540.5 C238.1,453.018 309.018,382.1 396.5,382.1 C483.982,382.1 554.9,453.018 554.9,540.5 C554.9,627.982 483.982,698.9 396.5,698.9 z" fill-opacity="0" stroke="#97999A" stroke-width="0.25" id="OuterCircle48"/>
      <path d="M396.5,612.5 C356.736,612.5 324.5,580.265 324.5,540.5 C324.5,500.736 356.736,468.5 396.5,468.5 C436.264,468.5 468.5,500.736 468.5,540.5 C468.5,580.265 436.264,612.5 396.5,612.5 z" fill-opacity="0" stroke="#97999A" stroke-width="0.25" id="InnerCircle48"/>
      <path d="M223.7,367.7 L569.3,713.3" fill-opacity="0" stroke="#97999A" stroke-width="0.25" id="DownSlant48"/>
      <path d="M223.7,713.3 L569.3,367.7" fill-opacity="0" stroke="#97999A" stroke-width="0.25" id="UpSlant48"/>
      <path d="M223.7,590.9 L569.3,590.9" fill-opacity="0" stroke="#97999A" stroke-width="0.25" id="BottomHorizLine48"/>
      <path d="M223.7,540.5 L569.3,540.5" fill-opacity="0" stroke="#97999A" stroke-width="0.25" id="MiddleHorizLine48"/>
      <path d="M223.7,490.1 L569.3,490.1" fill-opacity="0" stroke="#97999A" stroke-width="0.25" id="TopHorizLine48"/>
      <path d="M346.1,367.7 L346.1,713.3" fill-opacity="0" stroke="#97999A" stroke-width="0.25" id="LeftVertLine48"/>
      <path d="M396.5,367.7 L396.5,713.3" fill-opacity="0" stroke="#97999A" stroke-width="0.25" id="MiddleVertLine48"/>
      <path d="M446.9,367.7 L446.9,713.3" fill-opacity="0" stroke="#97999A" stroke-width="0.25" id="RightVertLine48"/>
      <path d="M259.7,425.3 L533.3,425.3 C545.229,425.3 554.9,434.971 554.9,446.9 L554.9,634.1 C554.9,646.029 545.229,655.7 533.3,655.7 L259.7,655.7 C247.771,655.7 238.1,646.029 238.1,634.1 L238.1,446.9 C238.1,434.971 247.771,425.3 259.7,425.3 z" fill-opacity="0" stroke="#97999A" stroke-width="0.25" id="HorizontalRectangle48"/>
      <path d="M302.9,382.1 L490.1,382.1 C502.029,382.1 511.7,391.771 511.7,403.7 L511.7,677.3 C511.7,689.229 502.029,698.9 490.1,698.9 L302.9,698.9 C290.971,698.9 281.3,689.229 281.3,677.3 L281.3,403.7 C281.3,391.771 290.971,382.1 302.9,382.1 z" fill-opacity="0" stroke="#97999A" stroke-width="0.25" id="VerticalRectangle48"/>
      <path d="M281.3,403.7 L511.7,403.7 C523.629,403.7 533.3,413.371 533.3,425.3 L533.3,655.7 C533.3,667.629 523.629,677.3 511.7,677.3 L281.3,677.3 C269.371,677.3 259.7,667.629 259.7,655.7 L259.7,425.3 C259.7,413.371 269.371,403.7 281.3,403.7 z" fill-opacity="0" stroke="#97999A" stroke-width="0.25" id="Square48"/>
      <path d="M223.7,367.7 L569.3,367.7 L569.3,713.3 L223.7,713.3 L223.7,367.7 z" fill-opacity="0" stroke="#97999A" stroke-width="0.25" id="Border48"/>
      <path d="M230.9,540.5 L396.5,374.9 L562.1,540.5 L396.5,706.1 L230.9,540.5 z" fill-opacity="0" stroke="#97999A" stroke-width="0.25" id="Diamond48"/>
    </g>
    <g id="Keylines16">
      <path d="M79.7,367.7 L194.9,367.7 L194.9,482.9 L79.7,482.9 L79.7,367.7 z" fill-opacity="0" stroke="#97999A" stroke-width="0.25"/>
      <path d="M79.7,425.3 L194.9,425.3" fill-opacity="0" stroke="#97999A" stroke-width="0.25"/>
      <path d="M137.3,367.7 L137.3,482.9" fill-opacity="0" stroke="#97999A" stroke-width="0.25"/>
      <path d="M79.7,367.7 L194.9,482.9" fill-opacity="0" stroke="#97999A" stroke-width="0.25"/>
      <path d="M79.7,482.9 L194.9,367.7" fill-opacity="0" stroke="#97999A" stroke-width="0.25"/>
      <path d="M137.3,482.9 C105.488,482.9 79.7,457.112 79.7,425.3 C79.7,393.488 105.488,367.7 137.3,367.7 C169.112,367.7 194.9,393.488 194.9,425.3 C194.9,457.112 169.112,482.9 137.3,482.9 z" fill-opacity="0" stroke="#97999A" stroke-width="0.25"/>
      <path d="M101.1,367.7 L173.5,367.7 C177.366,367.7 180.5,370.834 180.5,374.7 L180.5,475.9 C180.5,479.766 177.366,482.9 173.5,482.9 L101.1,482.9 C97.234,482.9 94.1,479.766 94.1,475.9 L94.1,374.7 C94.1,370.834 97.234,367.7 101.1,367.7 z" fill-opacity="0" stroke="#97999A" stroke-width="0.25"/>
      <path d="M86.7,382.1 L187.9,382.1 C191.766,382.1 194.9,385.234 194.9,389.1 L194.9,461.5 C194.9,465.366 191.766,468.5 187.9,468.5 L86.7,468.5 C82.834,468.5 79.7,465.366 79.7,461.5 L79.7,389.1 C79.7,385.234 82.834,382.1 86.7,382.1 z" fill-opacity="0" stroke="#97999A" stroke-width="0.25"/>
      <path d="M79.7,403.7 L194.9,403.7" fill-opacity="0" stroke="#97999A" stroke-width="0.25"/>
      <path d="M79.7,446.9 L194.9,446.9" fill-opacity="0" stroke="#97999A" stroke-width="0.25"/>
      <path d="M115.7,367.7 L115.7,482.9" fill-opacity="0" stroke="#97999A" stroke-width="0.25"/>
      <path d="M158.9,367.7 L158.9,482.9" fill-opacity="0" stroke="#97999A" stroke-width="0.25"/>
      <path d="M137.3,454.1 C121.394,454.1 108.5,441.206 108.5,425.3 C108.5,409.394 121.394,396.5 137.3,396.5 C153.206,396.5 166.1,409.394 166.1,425.3 C166.1,441.206 153.206,454.1 137.3,454.1 z" fill-opacity="0" stroke="#97999A" stroke-width="0.25"/>
    </g>
  </g>
</svg>
